<?xml version="1.0" encoding="UTF-8"?>
<svg id="Layer_1" xmlns="http://www.w3.org/2000/svg" viewBox="0 0 64 64">
  <path d="M54.94,18.02c-.65,0-1.07-.45-1.07-1.16,0-.83.16-1.67.48-2.5.26-.68.39-1.36.39-2.04,0-1.95-.54-3.49-1.66-4.72-1.15-1.25-2.59-2.19-4.28-2.8-1.73-.61-3.5-.92-5.28-.92-2.26,0-4.84.43-7.67,1.28-2.86.86-5.75,2.07-8.61,3.61-2.86,1.55-5.54,3.39-7.96,5.47-2.41,2.06-4.37,4.32-5.85,6.7-1.44,2.33-2.17,4.77-2.17,7.26,0,1.13.33,2.06,1.02,2.85.72.83,1.61,1.44,2.72,1.87,1.11.43,2.19.66,3.22.66,3.84,0,7.69-.31,11.46-.91,3.82-.61,7.69-.92,11.49-.92,1.15,0,2.31.14,3.46.41,1.22.29,2.24.84,3.05,1.65.85.85,1.28,2.04,1.28,3.54,0,2.56-.89,5.17-2.64,7.73-1.71,2.51-3.95,4.93-6.66,7.19-2.69,2.25-5.67,4.29-8.87,6.05-3.19,1.75-6.33,3.15-9.35,4.15-3.05,1.01-5.75,1.52-8.01,1.52-1.95,0-3.6-.57-4.91-1.68-1.33-1.14-2.01-2.75-2.01-4.8,0-.52.14-1.28.42-2.31.27-1,.64-1.95,1.1-2.83.55-1.07,1.23-1.61,2-1.61.56,0,1.16.35,1.16,1.33,0,.67-.33,1.43-1,2.34-.5.67-.75,1.56-.75,2.63,0,.93.25,1.6.75,2.06.52.48,1.21.71,2.1.71,2.59,0,5.5-.57,8.64-1.71,3.17-1.14,6.34-2.68,9.44-4.57,3.08-1.88,5.88-4.01,8.31-6.33,2.4-2.29,4.16-4.65,5.22-7,.37-.74.56-1.41.56-2.01,0-1-.37-1.55-1.2-1.79-1.04-.3-2.01-.46-2.88-.46-3.51,0-7.25.2-11.1.61-3.89.41-7.85.61-11.76.61-1.86,0-3.67-.27-5.38-.82-1.76-.56-3.24-1.5-4.38-2.8-1.18-1.33-1.77-3.15-1.77-5.39,0-2.67.86-5.37,2.54-8.02,1.65-2.59,3.75-5.07,6.26-7.37,2.48-2.28,5.13-4.32,7.85-6.05,2.73-1.73,5.19-3.06,7.29-3.93,2.06-.82,4.13-1.51,6.15-2.03,2.04-.53,4.2-.81,6.4-.81h1.22c2.2,0,4.41.33,6.56.99,2.19.67,4.04,1.8,5.51,3.35,1.5,1.6,2.27,3.76,2.27,6.41,0,.49-.07,1.27-.23,2.4-.15,1.11-.41,2.16-.78,3.11-.56,1.45-1.44,1.76-2.08,1.76Z"/>
</svg>