<?xml version="1.0" encoding="UTF-8"?>
<svg id="Layer_1" xmlns="http://www.w3.org/2000/svg" viewBox="0 0 64 64">
  <defs>
    <style>
      .cls-1 {
        fill: #f00c81;
      }
    </style>
  </defs>
  <path class="cls-1" d="M64,10v44c0,5.52-4.48,10-10,10H10c-5.52,0-10-4.48-10-10V10C0,4.48,4.48,0,10,0h44c5.52,0,10,4.48,10,10ZM47.64,22.16c.23-.59.39-1.25.49-1.94.1-.7.14-1.19.14-1.5,0-1.66-.48-3.01-1.42-4.01-.92-.97-2.08-1.68-3.44-2.1-1.34-.41-2.72-.62-4.1-.62h-.76c-1.37,0-2.72.17-4,.5-1.26.33-2.55.76-3.84,1.27-1.32.55-2.85,1.37-4.56,2.46-1.71,1.08-3.36,2.35-4.91,3.78-1.57,1.44-2.88,2.99-3.91,4.6-1.05,1.66-1.59,3.35-1.59,5.01,0,1.4.37,2.54,1.11,3.37.72.81,1.64,1.4,2.74,1.75,1.07.34,2.2.51,3.36.51,2.44,0,4.91-.13,7.35-.38,2.41-.25,4.74-.38,6.94-.38.54,0,1.14.1,1.8.28.52.15.75.49.75,1.12,0,.37-.11.79-.35,1.25-.66,1.47-1.76,2.94-3.26,4.38-1.52,1.45-3.27,2.78-5.2,3.96-1.93,1.18-3.92,2.14-5.9,2.85-1.96.71-3.78,1.07-5.4,1.07-.56,0-.99-.15-1.31-.44-.32-.29-.47-.71-.47-1.29,0-.67.16-1.23.47-1.64.42-.57.62-1.04.62-1.46,0-.61-.37-.83-.72-.83-.48,0-.91.34-1.25,1.01-.28.55-.51,1.14-.68,1.77-.17.64-.26,1.11-.26,1.44,0,1.28.42,2.29,1.26,3,.82.7,1.85,1.05,3.07,1.05,1.41,0,3.1-.32,5.01-.95,1.89-.62,3.85-1.5,5.85-2.59,2-1.1,3.86-2.37,5.54-3.78,1.69-1.42,3.09-2.93,4.16-4.5,1.1-1.61,1.65-3.23,1.65-4.83,0-.94-.27-1.69-.8-2.21-.51-.51-1.15-.85-1.91-1.03-.72-.17-1.45-.26-2.16-.26-2.37,0-4.79.19-7.18.58-2.35.38-4.76.57-7.16.57-.64,0-1.32-.14-2.01-.41-.69-.27-1.25-.65-1.7-1.17-.43-.49-.64-1.08-.64-1.78,0-1.55.46-3.08,1.36-4.54.92-1.49,2.15-2.9,3.66-4.19,1.51-1.3,3.19-2.45,4.97-3.42,1.78-.96,3.59-1.72,5.38-2.26,1.77-.53,3.38-.8,4.79-.8,1.11,0,2.22.19,3.3.58,1.06.38,1.96.96,2.68,1.75.7.77,1.04,1.73,1.04,2.95,0,.42-.08.85-.25,1.27-.2.52-.3,1.04-.3,1.56,0,.44.26.72.67.72s.95-.19,1.3-1.1Z"/>
</svg>