<?xml version="1.0" encoding="UTF-8"?>
<svg id="Layer_1" xmlns="http://www.w3.org/2000/svg" viewBox="0 0 64 64">
  <defs>
    <style>
      .cls-1 {
        fill: #f00c81;
      }
    </style>
  </defs>
  <path class="cls-1" d="M19.93,25.85c.14-.37.25-.78.3-1.21.06-.44.09-.74.09-.94,0-1.04-.3-1.88-.89-2.5-.57-.61-1.3-1.05-2.15-1.31-.84-.26-1.7-.39-2.56-.39h-.48c-.86,0-1.7.11-2.5.31-.79.21-1.59.47-2.4.79-.82.34-1.78.86-2.85,1.54-1.07.68-2.1,1.47-3.07,2.36-.98.9-1.8,1.87-2.44,2.88-.66,1.04-.99,2.09-.99,3.13,0,.88.23,1.58.69,2.11.45.51,1.02.88,1.71,1.09.67.21,1.37.32,2.1.32,1.53,0,3.07-.08,4.59-.24,1.51-.16,2.96-.24,4.34-.24.34,0,.72.06,1.12.18.32.09.47.31.47.7,0,.23-.07.49-.22.78-.41.92-1.1,1.84-2.04,2.73-.95.9-2.04,1.74-3.25,2.47-1.21.74-2.45,1.34-3.69,1.78-1.23.44-2.36.67-3.37.67-.35,0-.62-.09-.82-.28-.2-.18-.29-.44-.29-.8,0-.42.1-.77.29-1.03.26-.35.39-.65.39-.91,0-.38-.23-.52-.45-.52-.3,0-.57.21-.78.63-.18.34-.32.71-.43,1.1-.11.4-.16.7-.16.9,0,.8.26,1.43.79,1.87.51.44,1.15.66,1.92.66.88,0,1.94-.2,3.13-.59,1.18-.39,2.41-.93,3.65-1.62,1.25-.69,2.41-1.48,3.46-2.36,1.06-.88,1.93-1.83,2.6-2.81.68-1,1.03-2.02,1.03-3.02,0-.59-.17-1.05-.5-1.38-.32-.32-.72-.53-1.19-.65-.45-.11-.9-.16-1.35-.16-1.48,0-2.99.12-4.49.36-1.47.24-2.98.35-4.47.35-.4,0-.82-.09-1.26-.26-.43-.17-.78-.41-1.06-.73-.27-.31-.4-.67-.4-1.11,0-.97.29-1.92.85-2.83.58-.93,1.34-1.81,2.28-2.62.95-.81,1.99-1.53,3.11-2.13,1.11-.6,2.24-1.08,3.36-1.41,1.11-.33,2.11-.5,3-.5.69,0,1.39.12,2.06.36.66.24,1.22.6,1.67,1.09.44.48.65,1.08.65,1.84,0,.26-.05.53-.15.8-.12.32-.19.65-.19.98,0,.27.16.45.42.45s.59-.12.81-.69Z"/>
  <path class="cls-1" d="M47.95,33.55c0-.23-.16-.39-.38-.39-.18,0-.4.11-.74.35-.28.2-.59.45-.95.76-.34.3-.65.57-.93.82-.19.17-.34.31-.45.42-.21-.11-.49-.22-.85-.32-.43-.12-.87-.26-1.31-.39-.42-.13-.78-.29-1.08-.48-.36-.23-.36-.44-.36-.51,0-.36.15-.78.46-1.27.31-.5.72-1,1.21-1.47.48-.47.99-.87,1.5-1.17.49-.29.92-.44,1.25-.44.06,0,.12.09.15.14.19.31.43.37.6.37.11,0,.37-.04.48-.42.05-.18.08-.33.08-.44,0-.43-.19-.76-.56-.95-.83-.43-1.68-.31-2.75.39-.62.4-1.25.92-1.85,1.53-.6.61-1.1,1.25-1.49,1.91-.27.45-.44.88-.52,1.27-.07-.06-.16-.1-.27-.1-.18,0-.4.11-.74.35-.28.2-.59.45-.95.76-.34.3-.65.57-.93.82-.19.17-.34.31-.45.42-.21-.11-.49-.22-.85-.32-.43-.12-.87-.26-1.31-.39-.42-.13-.78-.29-1.08-.48-.36-.23-.36-.44-.36-.51,0-.36.15-.78.46-1.27.32-.5.72-1,1.21-1.47.48-.47.99-.87,1.5-1.17.49-.29.91-.44,1.25-.44.06,0,.12.1.14.14.19.31.43.38.6.38.11,0,.37-.04.48-.42.05-.18.08-.33.08-.44,0-.43-.19-.76-.56-.95-.82-.43-1.69-.3-2.75.39-.62.4-1.25.92-1.85,1.53-.6.61-1.1,1.25-1.48,1.91-.4.67-.6,1.29-.6,1.83,0,.36.09.68.29.97-.2.33-.43.71-.69,1.15-.34.57-.71,1.14-1.08,1.69-.38.55-.77,1.02-1.16,1.39-.36.34-.69.51-.99.51s-.5-.1-.62-.32c-.15-.27-.25-.57-.29-.91-.04-.36-.07-.68-.07-.94,0-.73.08-1.5.23-2.29.16-.81.31-1.57.46-2.3.15-.74.23-1.39.23-1.92,0-.4-.15-.68-.42-.82l.28-.19-.52.09s0-.09,0-.13c0-.49-.26-.94-.78-1.32-1.14-.86-2.13-.71-3.07.32-.5.54-.97,1.22-1.4,2.01-.42.78-.79,1.55-1.08,2.29-.3.73-.5,1.31-.62,1.71-.25.85-.46,1.77-.62,2.74-.16.97-.24,1.91-.24,2.78,0,.26.02.64.07,1.11.05.51.17.96.36,1.36.22.46.59.7,1.08.7.44,0,.88-.25,1.31-.73.4-.44.79-1.01,1.17-1.7.37-.67.73-1.38,1.07-2.13.32-.73.62-1.42.87-2.05.02-.06.05-.12.07-.18.01.52.06,1.08.15,1.67.11.71.32,1.33.65,1.85.35.56.88.85,1.56.85.42,0,.89-.19,1.39-.58.48-.36.96-.83,1.44-1.4.47-.56.9-1.15,1.3-1.76.39-.61.71-1.18.95-1.7.17.09.33.17.51.23.47.17.95.32,1.42.45.3.08.57.17.81.27-.23.23-.49.5-.79.8-.42.43-.84.91-1.26,1.43-.41.51-.77,1.03-1.06,1.53-.3.52-.46,1.01-.46,1.44,0,.55.31.86.86.86.44,0,.94-.19,1.53-.59.56-.37,1.1-.84,1.63-1.4.52-.56.96-1.13,1.31-1.69.37-.6.55-1.11.55-1.54,0-.37-.08-.72-.25-1.05.11-.11.26-.25.44-.43.27-.26.56-.54.87-.84.31-.3.58-.59.8-.86.09-.1.15-.19.21-.28.04.47.21.86.52,1.15.33.3.75.55,1.24.73.47.17.95.32,1.42.45.3.08.57.17.81.27-.23.23-.49.5-.79.8-.42.43-.84.91-1.26,1.43-.42.52-.77,1.03-1.06,1.53-.31.52-.46,1.01-.46,1.44,0,.55.31.86.86.86.44,0,.94-.19,1.53-.59.56-.37,1.11-.84,1.63-1.4.52-.55.96-1.12,1.31-1.69.37-.6.55-1.11.55-1.54,0-.37-.08-.72-.25-1.05.11-.11.26-.25.44-.43l.87-.84c.31-.3.58-.59.8-.86.26-.32.38-.54.38-.72ZM44.29,37.67c0,.11-.04.31-.26.68-.19.32-.41.64-.68.97-.26.33-.53.6-.8.81-.25.2-.41.26-.53.28.02-.08.08-.23.27-.51.21-.3.47-.62.77-.97.3-.35.59-.67.88-.96.13-.13.24-.25.34-.35,0,.01,0,.03,0,.04ZM35.91,37.67c0,.11-.04.31-.26.68-.19.32-.42.65-.68.97-.26.33-.53.6-.8.81-.25.2-.41.26-.53.28.02-.08.08-.23.27-.51.21-.3.47-.62.77-.97.3-.35.6-.67.88-.96.13-.13.24-.25.34-.35,0,.01,0,.03,0,.04ZM24.47,29.57c.24,0,.41.05.49.15.12.14.23.29.31.45.09.17.22.29.39.35-.06.15-.14.34-.23.61l-.77,2.18c-.31.87-.64,1.8-1,2.77-.36.97-.74,1.88-1.13,2.72-.39.84-.77,1.53-1.12,2.06-.41.62-.67.71-.78.71-.02,0-.07-.05-.12-.22-.07-.24-.12-.5-.13-.79-.01-.3-.02-.5-.02-.59,0-1.63.23-3.23.67-4.77.09-.3.25-.76.49-1.41.24-.63.53-1.28.87-1.93.34-.65.71-1.22,1.08-1.68.33-.41.67-.62,1-.62Z"/>
  <path class="cls-1" d="M63.62,33.17c-.18,0-.4.11-.74.35-.28.2-.59.45-.96.76-.34.3-.65.57-.93.82-.19.17-.34.31-.45.42-.21-.11-.49-.22-.85-.32-.43-.12-.86-.26-1.31-.39-.42-.13-.78-.29-1.08-.48-.36-.23-.36-.44-.36-.51,0-.36.15-.78.46-1.27.31-.5.72-1,1.21-1.47.48-.47.99-.87,1.5-1.17.49-.29.92-.44,1.25-.44.06,0,.12.09.15.14.19.31.43.37.6.37.11,0,.37-.04.48-.42.05-.18.08-.33.08-.44,0-.43-.19-.76-.56-.95-.83-.43-1.68-.31-2.75.39-.62.4-1.25.92-1.85,1.53-.6.61-1.1,1.25-1.49,1.91-.29.5-.48.97-.55,1.41-.13.04-.23.12-.31.23-.08.12-.14.24-.2.38-.11.32-.3.78-.54,1.35-.24.58-.54,1.2-.88,1.86-.34.65-.7,1.28-1.09,1.87-.39.58-.78,1.07-1.19,1.44-.37.34-.74.51-1.11.51-.32,0-.52-.11-.65-.35-.15-.29-.25-.62-.28-.99-.03-.4-.05-.74-.05-1,0-.54,0-1.09.02-1.65.01-.5.04-1.01.1-1.5.53-.28,1.12-.69,1.75-1.21.68-.57,1.28-1.21,1.78-1.92.52-.73.78-1.46.78-2.17,0-.58-.21-1.03-.63-1.34-.31-.23-.65-.4-1.01-.51.01-.15-.03-.29-.12-.42-.15-.21-.37-.33-.63-.33-.16,0-.4.05-.61.31-.1.12-.2.23-.29.32-.48.12-.53.48-.53.64v.13c-.54.84-.97,1.79-1.28,2.83-.3,1-.52,1.99-.64,2.95-.09.03-.18.08-.26.14-.17.11-.29.24-.35.41l-.02.09c0,.12.04.47.49.54-.01.13-.02.27-.03.42-.01.26-.02.56-.02.88,0,.69.06,1.44.17,2.23.12.81.35,1.51.7,2.09.37.62.92.94,1.63.94.51,0,1.06-.25,1.63-.74.53-.46,1.07-1.06,1.59-1.78.51-.7.99-1.46,1.41-2.24.42-.78.76-1.51,1.02-2.19.06-.16.11-.31.16-.45,0,0,0,0,0,0,.33.3.75.55,1.24.73.47.17.95.32,1.42.45.3.08.57.17.81.27-.22.23-.49.5-.79.8-.42.43-.84.91-1.26,1.43-.42.52-.77,1.03-1.06,1.53-.31.52-.46,1.01-.46,1.44,0,.55.31.86.86.86.44,0,.94-.19,1.53-.59.56-.37,1.11-.84,1.63-1.4.52-.55.96-1.12,1.31-1.69.37-.6.55-1.11.55-1.54,0-.37-.08-.72-.25-1.05.11-.11.26-.25.44-.43l.87-.84c.31-.3.58-.59.8-.85.26-.32.38-.54.38-.72,0-.23-.16-.39-.38-.39ZM60.34,37.67c0,.11-.04.31-.26.68-.19.32-.42.65-.68.97-.26.33-.53.6-.8.81-.25.2-.41.26-.53.28.02-.08.08-.23.27-.51.21-.3.47-.62.77-.97.3-.35.59-.67.88-.96.13-.13.24-.25.34-.35,0,.01,0,.03,0,.04ZM49.59,33.79c.13-.61.3-1.24.51-1.86.26-.76.58-1.47.96-2.12.14.03.31.09.49.17.19.09.26.2.26.37,0,.48-.14.96-.41,1.44-.28.5-.63.95-1.05,1.34-.26.24-.51.46-.77.65Z"/>
</svg>