<?xml version="1.0" encoding="UTF-8"?>
<svg id="Layer_1" xmlns="http://www.w3.org/2000/svg" viewBox="0 0 64 64">
  <defs>
    <style>
      .cls-1 {
        fill: #f00c81;
      }
    </style>
  </defs>
  <path class="cls-1" d="M57.02,16.26c.37-.95.63-2,.78-3.11.15-1.12.23-1.91.23-2.4,0-2.65-.76-4.81-2.27-6.41-1.47-1.56-3.32-2.68-5.51-3.35-2.15-.66-4.35-.99-6.56-.99h-1.22c-2.2,0-4.35.27-6.4.81-2.02.53-4.08,1.21-6.15,2.03-2.1.88-4.56,2.2-7.29,3.93-2.73,1.73-5.37,3.77-7.85,6.05-2.51,2.3-4.61,4.78-6.26,7.37-1.69,2.65-2.54,5.35-2.54,8.02,0,2.24.6,4.06,1.77,5.39,1.15,1.3,2.62,2.25,4.38,2.8,1.71.54,3.52.82,5.38.82,3.91,0,7.86-.21,11.76-.61,3.85-.4,7.59-.61,11.1-.61.86,0,1.83.15,2.88.46.83.24,1.2.79,1.2,1.79,0,.6-.18,1.26-.56,2.01-1.06,2.35-2.82,4.71-5.22,7-2.43,2.32-5.23,4.45-8.31,6.33-3.09,1.89-6.27,3.43-9.44,4.57-3.14,1.13-6.05,1.71-8.64,1.71-.89,0-1.58-.23-2.1-.71-.51-.46-.75-1.13-.75-2.06,0-1.08.25-1.96.75-2.63.67-.91,1-1.67,1-2.34,0-.98-.6-1.33-1.16-1.33-.78,0-1.45.54-2,1.61-.45.88-.82,1.83-1.1,2.83-.28,1.03-.42,1.78-.42,2.31,0,2.05.68,3.66,2.01,4.8,1.31,1.12,2.96,1.68,4.91,1.68,2.26,0,4.96-.51,8.01-1.52,3.02-1,6.17-2.39,9.35-4.15,3.2-1.76,6.18-3.8,8.87-6.05,2.71-2.26,4.95-4.68,6.66-7.19,1.75-2.57,2.64-5.17,2.64-7.73,0-1.5-.43-2.7-1.28-3.54-.81-.81-1.84-1.37-3.05-1.65-1.15-.27-2.32-.41-3.46-.41-3.8,0-7.66.31-11.49.92-3.77.6-7.62.91-11.46.91-1.02,0-2.11-.22-3.22-.66-1.11-.43-2-1.04-2.72-1.87-.69-.79-1.02-1.72-1.02-2.85,0-2.49.73-4.93,2.17-7.26,1.48-2.38,3.44-4.64,5.85-6.7,2.42-2.08,5.1-3.92,7.96-5.47,2.85-1.54,5.75-2.76,8.61-3.61,2.83-.85,5.41-1.28,7.67-1.28,1.78,0,3.56.31,5.28.92,1.69.6,3.14,1.54,4.28,2.8,1.12,1.23,1.66,2.77,1.66,4.72,0,.68-.13,1.36-.39,2.04-.32.83-.48,1.67-.48,2.5,0,.7.42,1.16,1.07,1.16s1.51-.31,2.08-1.76Z"/>
</svg>