<?xml version="1.0" encoding="UTF-8"?>
<svg id="Layer_1" xmlns="http://www.w3.org/2000/svg" viewBox="0 0 52.32 64">
  <path d="M8,64c-2.08,0-3.86-.61-5.27-1.82-1.48-1.26-2.22-3.02-2.22-5.25,0-.59.14-1.36.43-2.44.28-1.03.66-2,1.13-2.91.84-1.63,1.88-1.97,2.61-1.97.9,0,1.86.64,1.86,2.04,0,.82-.37,1.71-1.12,2.72-.39.53-.59,1.24-.59,2.14s.28,1.28.49,1.47c.38.34.87.5,1.56.5,2.45,0,5.2-.55,8.19-1.62,3.05-1.1,6.1-2.58,9.09-4.4,2.97-1.81,5.66-3.86,8-6.09,2.28-2.18,3.94-4.4,4.94-6.61.32-.64.48-1.19.48-1.66,0-.79-.28-.94-.64-1.04-.95-.28-1.83-.42-2.61-.42-3.4,0-7.03.2-10.77.59-3.83.4-7.72.6-11.56.6-1.9,0-3.74-.28-5.48-.83-1.85-.58-3.4-1.58-4.61-2.95-1.27-1.44-1.92-3.37-1.92-5.75,0-2.75.87-5.52,2.6-8.23,1.64-2.58,3.74-5.06,6.24-7.35,2.46-2.26,5.07-4.27,7.78-5.99,2.71-1.71,5.14-3.03,7.24-3.9,2.05-.82,4.1-1.5,6.11-2.02,2.06-.54,4.22-.81,6.44-.81h1.19c2.23,0,4.45.34,6.62,1,2.26.69,4.18,1.86,5.7,3.48,1.6,1.71,2.41,3.98,2.41,6.77,0,.52-.07,1.31-.23,2.44-.15,1.15-.42,2.22-.8,3.2-.73,1.9-2.01,2.19-2.71,2.19-1.05,0-1.78-.77-1.78-1.86,0-.9.17-1.81.52-2.7.22-.58.34-1.16.34-1.73,0-1.71-.47-3.06-1.43-4.12-1.04-1.13-2.34-1.99-3.89-2.54-1.61-.57-3.26-.86-4.92-.86-2.14,0-4.59.41-7.28,1.22-2.75.82-5.53,1.99-8.27,3.47-2.75,1.49-5.32,3.25-7.65,5.25-2.29,1.97-4.17,4.11-5.57,6.38-1.34,2.16-2.01,4.41-2.01,6.7,0,.93.26,1.67.82,2.31.63.72,1.4,1.25,2.37,1.63,1,.39,1.97.59,2.88.59,3.71,0,7.44-.3,11.08-.88,3.78-.61,7.59-.91,11.34-.91,1.18,0,2.37.14,3.55.42,1.32.31,2.45.92,3.33,1.81.97.97,1.46,2.31,1.46,3.98,0,2.65-.91,5.34-2.71,7.97-1.71,2.51-3.94,4.92-6.64,7.18-2.66,2.23-5.62,4.25-8.78,5.99-3.16,1.74-6.27,3.12-9.26,4.11-3.06,1.01-5.77,1.52-8.05,1.52ZM4.68,51.08c-.46,0-.9.4-1.31,1.18-.42.81-.76,1.69-1.01,2.62-.25.93-.38,1.62-.38,2.06,0,1.77.57,3.17,1.71,4.13,1.14.97,2.59,1.47,4.32,1.47,2.13,0,4.69-.49,7.6-1.44,2.9-.96,5.94-2.3,9.01-4,3.08-1.7,5.96-3.66,8.55-5.83,2.6-2.17,4.74-4.49,6.37-6.88,1.63-2.39,2.46-4.79,2.46-7.14,0-1.27-.35-2.26-1.03-2.94-.69-.7-1.58-1.17-2.63-1.42-1.07-.25-2.15-.38-3.21-.38-3.67,0-7.41.3-11.11.89-3.72.59-7.52.9-11.31.9-1.09,0-2.24-.23-3.41-.69-1.19-.46-2.15-1.13-2.94-2.03-.79-.91-1.18-1.98-1.18-3.27,0-2.57.75-5.08,2.23-7.48,1.48-2.39,3.45-4.65,5.86-6.72,2.41-2.07,5.06-3.89,7.91-5.43,2.83-1.53,5.7-2.74,8.55-3.59,2.83-.85,5.43-1.28,7.71-1.28,1.82,0,3.64.32,5.41.94,1.77.63,3.28,1.62,4.48,2.93,1.22,1.34,1.82,3.01,1.82,5.11,0,.75-.15,1.51-.43,2.26-.28.72-.42,1.45-.42,2.18,0,.4.2.4.31.4.57,0,1.02-.42,1.34-1.25h0c.34-.87.58-1.84.72-2.87.14-1.05.21-1.8.21-2.24,0-2.4-.68-4.34-2.02-5.77-1.34-1.43-3.05-2.46-5.06-3.08-2.03-.62-4.11-.93-6.19-.93h-1.19c-2.09,0-4.13.26-6.07.76-1.95.51-3.94,1.17-5.92,1.96-2.01.84-4.37,2.11-7,3.78-2.63,1.67-5.18,3.63-7.57,5.83-2.4,2.2-4.42,4.58-5.99,7.05-1.57,2.47-2.37,4.98-2.37,7.44,0,2.01.52,3.62,1.55,4.78,1.03,1.17,2.36,2.02,3.95,2.52,1.6.51,3.29.76,5.04.76,3.8,0,7.64-.2,11.41-.6,3.8-.4,7.47-.6,10.93-.6.91,0,1.93.16,3.01.47,1.13.33,1.7,1.15,1.7,2.45,0,.7-.21,1.47-.62,2.29-1.06,2.36-2.83,4.73-5.25,7.04-2.42,2.3-5.19,4.41-8.25,6.28-3.07,1.87-6.22,3.4-9.36,4.53-3.15,1.14-6.07,1.71-8.69,1.71-1.06,0-1.89-.29-2.55-.88-.65-.59-.98-1.45-.98-2.56,0-1.21.29-2.22.87-3.01.55-.74.83-1.37.83-1.85,0-.57-.27-.57-.4-.57Z"/>
</svg>